<svg
    width="140" height="22" viewBox="0 0 140 22" fill="none"
    xmlns="http://www.w3.org/2000/svg" class="h-full w-auto">
    <path
        d="M2.63763 21.2712C1.83129 20.9022 1.19009 20.3583 0.714056 19.6395C0.238019 18.9208 0 18.0467 0 17.0171C0 16.2207 0.150583 15.4534 0.45175 14.7153C0.752916 13.9771 1.12695 13.2681 1.57384 12.5882C2.02073 11.9083 2.46762 11.2673 2.91451 10.6651C3.36141 10.0629 3.74029 9.50447 4.05117 8.98971C4.36206 8.47494 4.5175 8.00388 4.5175 7.57653C4.5175 7.07148 4.37663 6.67326 4.09489 6.38188C3.81316 6.09051 3.36141 5.94482 2.73964 5.94482H0.816064V2.06951H3.78887C5.38213 2.06951 6.61109 2.49686 7.47573 3.35156C8.34037 4.20627 8.77268 5.38149 8.77268 6.87722C8.77268 7.59595 8.6221 8.30983 8.32094 9.01884C8.01977 9.72786 7.64088 10.4175 7.18428 11.0876C6.72767 11.7578 6.27592 12.4037 5.82903 13.0253C5.38213 13.6469 5.00325 14.2393 4.69237 14.8027C4.38149 15.366 4.22604 15.9002 4.22604 16.4052C4.22604 16.9103 4.36205 17.3571 4.63408 17.6873C4.9061 18.0175 5.34327 18.1826 5.94561 18.1826C6.54794 18.1826 7.02398 17.9932 7.37372 17.6145C7.72346 17.2357 7.99062 16.7258 8.17521 16.0847C8.3598 15.4437 8.51038 14.725 8.62696 13.9285C8.74354 13.1321 8.87469 12.3017 9.02042 11.4373C9.16614 10.5729 9.37502 9.74243 9.64704 8.946C9.91906 8.14957 10.2931 7.43084 10.7691 6.78981C11.2452 6.14878 11.8815 5.63887 12.6781 5.26008C13.4748 4.88129 14.4851 4.6919 15.7092 4.6919C16.8167 4.6919 17.7785 4.90072 18.5946 5.31836C19.4107 5.736 20.0373 6.30904 20.4745 7.03748C20.9116 7.76592 21.1302 8.58664 21.1302 9.49962C21.1302 10.2378 20.9991 10.9031 20.7368 11.4955C20.4745 12.088 20.1587 12.6173 19.7895 13.0836C19.4204 13.5498 19.0463 13.982 18.6675 14.3802C18.2886 14.7784 17.968 15.162 17.7057 15.5311C17.4434 15.9002 17.3122 16.279 17.3122 16.6675C17.3122 17.1143 17.4871 17.4785 17.8368 17.7601C18.1866 18.0418 18.6626 18.1826 19.2649 18.1826C19.9838 18.1826 20.5716 17.9981 21.0282 17.629C21.4848 17.26 21.82 16.75 22.0337 16.0993C22.2475 15.4486 22.3543 14.7055 22.3543 13.8703V0.670898H26.6095V14.2491C26.6095 15.9196 26.3035 17.3134 25.6914 18.4303C25.0794 19.5473 24.239 20.3923 23.1704 20.9653C22.1017 21.5383 20.8873 21.8249 19.5272 21.8249C18.07 21.8249 16.875 21.5918 15.9424 21.1255C15.0097 20.6593 14.32 20.0572 13.8731 19.319C13.4262 18.5809 13.2027 17.8136 13.2027 17.0171C13.2027 16.2207 13.329 15.5894 13.5816 15.0066C13.8342 14.4239 14.15 13.8994 14.5288 13.4332C14.9077 12.967 15.2818 12.5299 15.6509 12.122C16.0201 11.7141 16.3358 11.3207 16.5982 10.9419C16.8605 10.5631 16.9916 10.1601 16.9916 9.73272C16.9916 9.36364 16.8556 9.04313 16.5836 8.77117C16.3116 8.49922 15.923 8.36325 15.4178 8.36325C14.796 8.36325 14.3103 8.55264 13.9605 8.93143C13.6108 9.31022 13.3388 9.82013 13.1445 10.4612C12.9502 11.1022 12.7899 11.8258 12.6636 12.6319C12.5373 13.4381 12.3964 14.2636 12.241 15.1086C12.0855 15.9536 11.8669 16.7743 11.5852 17.5708C11.3035 18.3672 10.9149 19.0859 10.4194 19.7269C9.92392 20.368 9.26815 20.8779 8.45209 21.2567C7.63602 21.6355 6.60623 21.8249 5.3627 21.8249C4.35234 21.8249 3.44398 21.6403 2.63763 21.2712V21.2712Z"
        fill="currentColor"></path>
    <path
        d="M31.681 20.951C30.4763 20.2517 29.5291 19.3144 28.8393 18.1392C28.1496 16.964 27.8047 15.6577 27.8047 14.2202C27.8047 12.7827 28.1496 11.4764 28.8393 10.3012C29.5291 9.12595 30.4763 8.18869 31.681 7.48939C32.8857 6.79008 34.2458 6.44043 35.7613 6.44043C37.2769 6.44043 38.6321 6.79008 39.8271 7.48939C41.022 8.18869 41.9644 9.12595 42.6541 10.3012C43.3439 11.4764 43.6888 12.7827 43.6888 14.2202C43.6888 15.6577 43.3439 16.964 42.6541 18.1392C41.9644 19.3144 41.022 20.2517 39.8271 20.951C38.6321 21.6503 37.2769 22 35.7613 22C34.2458 22 32.8857 21.6503 31.681 20.951V20.951ZM37.8015 17.8915C38.3844 17.503 38.8458 16.9883 39.1859 16.3472C39.5259 15.7062 39.6959 14.9972 39.6959 14.2202C39.6959 13.4432 39.5259 12.7342 39.1859 12.0931C38.8458 11.4521 38.3844 10.9373 37.8015 10.5488C37.2186 10.1603 36.5385 9.96609 35.7613 9.96609C34.9841 9.96609 34.2992 10.1603 33.7066 10.5488C33.114 10.9373 32.6476 11.4521 32.3076 12.0931C31.9676 12.7342 31.7976 13.4432 31.7976 14.2202C31.7976 14.9972 31.9676 15.7062 32.3076 16.3472C32.6476 16.9883 33.114 17.503 33.7066 17.8915C34.2992 18.28 34.9841 18.4743 35.7613 18.4743C36.5385 18.4743 37.2186 18.28 37.8015 17.8915Z"
        fill="currentColor"></path>
    <path d="M44.8838 0.670898H48.9641V21.65H44.8838V0.670898Z" fill="currentColor"></path>
    <path
        d="M50.1875 10.0824V6.78981H61.1461V10.0824H50.1875ZM53.2477 5.36207C53.2477 3.86633 53.6558 2.71054 54.4718 1.89468C55.2879 1.07883 56.4343 0.670898 57.911 0.670898H61.1461V3.93432H58.9019C58.3384 3.93432 57.9352 4.05573 57.6924 4.29854C57.4495 4.54135 57.3281 4.94443 57.3281 5.50775V21.65H53.2477V5.36207V5.36207Z"
        fill="currentColor"></path>
    <path
        d="M59.252 10.0824V6.78981H70.2105V10.0824H59.252V10.0824ZM62.3122 5.36207C62.3122 3.86633 62.7202 2.71054 63.5363 1.89468C64.3524 1.07883 65.4987 0.670898 66.9754 0.670898H70.2105V3.93432H67.9663C67.4029 3.93432 66.9997 4.05573 66.7568 4.29854C66.5139 4.54135 66.3925 4.94443 66.3925 5.50775V21.65H62.3122V5.36207Z"
        fill="currentColor"></path>
    <path
        d="M83.5999 21.1402C82.269 20.5865 81.0983 19.8144 80.0879 18.8237C79.0776 17.833 78.2955 16.6821 77.7418 15.3709C77.188 14.0597 76.9111 12.6465 76.9111 11.1314C76.9111 9.61621 77.188 8.20789 77.7418 6.9064C78.2955 5.60492 79.0776 4.45884 80.0879 3.46816C81.0983 2.47748 82.269 1.70533 83.5999 1.15171C84.9309 0.598097 86.3639 0.321289 87.8988 0.321289C89.4338 0.321289 90.8328 0.598097 92.154 1.15171C93.4753 1.70533 94.6411 2.47748 95.6514 3.46816C96.6618 4.45884 97.4439 5.60492 97.9976 6.9064C98.5514 8.20789 98.8283 9.61621 98.8283 11.1314C98.8283 12.6465 98.5514 14.0597 97.9976 15.3709C97.4439 16.6821 96.6618 17.833 95.6514 18.8237C94.6411 19.8144 93.4753 20.5865 92.154 21.1402C90.8328 21.6938 89.4144 21.9706 87.8988 21.9706C86.3833 21.9706 84.9309 21.6938 83.5999 21.1402V21.1402ZM91.134 17.0317C92.1055 16.4393 92.8729 15.6331 93.4364 14.6133C93.9999 13.5935 94.2816 12.4329 94.2816 11.1314C94.2816 9.82988 93.9999 8.66923 93.4364 7.64942C92.8729 6.6296 92.1055 5.82831 91.134 5.24556C90.1625 4.6628 89.0841 4.37143 87.8988 4.37143C86.7136 4.37143 85.6061 4.6628 84.6346 5.24556C83.6631 5.82831 82.8907 6.6296 82.3176 7.64942C81.7444 8.66923 81.4578 9.82988 81.4578 11.1314C81.4578 12.4329 81.7444 13.5935 82.3176 14.6133C82.8907 15.6331 83.6631 16.4393 84.6346 17.0317C85.6061 17.6242 86.6845 17.9204 87.8697 17.9204C89.0549 17.9204 90.1625 17.6242 91.134 17.0317Z"
        fill="currentColor"></path>
    <path d="M100.257 0.670898H104.337V21.65H100.257V0.670898Z" fill="currentColor"></path>
    <path
        d="M105.853 4.66276V0.670898H110.049V4.66276H105.853V4.66276ZM105.911 6.78981H109.991V21.65H105.911V6.78981Z"
        fill="currentColor"></path>
    <path
        d="M111.565 6.78975H115.558V21.65H111.565V6.78975ZM122.815 7.24139C123.632 7.75615 124.258 8.4506 124.695 9.32473C125.132 10.1989 125.351 11.1895 125.351 12.2968V21.65H121.358V13.0835C121.358 11.918 121.096 11.0487 120.571 10.4757C120.047 9.90263 119.357 9.61611 118.502 9.61611C117.55 9.61611 116.821 9.93177 116.316 10.5631C115.811 11.1944 115.558 12.0442 115.558 13.1126L114.393 12.5007C114.529 10.5 115.092 8.9945 116.083 7.9844C117.074 6.97429 118.366 6.46924 119.959 6.46924C121.047 6.46924 121.999 6.72662 122.815 7.24139V7.24139Z"
        fill="currentColor"></path>
    <path
        d="M135.158 16.5221C134.721 16.3084 134.153 16.1433 133.453 16.0267C132.754 15.9102 132.015 15.7791 131.238 15.6334C130.461 15.4877 129.723 15.2643 129.023 14.9632C128.324 14.6621 127.755 14.2202 127.318 13.6374C126.881 13.0547 126.662 12.268 126.662 11.2773C126.662 10.2866 126.934 9.40276 127.478 8.68403C128.022 7.9653 128.756 7.41169 129.679 7.02318C130.602 6.63468 131.646 6.44043 132.812 6.44043C134.6 6.44043 136.091 6.85321 137.286 7.67878C138.481 8.50435 139.214 9.72327 139.486 11.3356H135.726C135.59 10.8111 135.289 10.3643 134.823 9.99523C134.357 9.62615 133.677 9.44161 132.783 9.44161C132.161 9.44161 131.636 9.56787 131.209 9.8204C130.782 10.0729 130.568 10.4323 130.568 10.8985C130.568 11.3258 130.786 11.6464 131.224 11.86C131.661 12.0737 132.229 12.2388 132.929 12.3554C133.628 12.4719 134.371 12.5982 135.158 12.7342C135.945 12.8701 136.683 13.0838 137.373 13.3752C138.063 13.6666 138.631 14.0939 139.078 14.6573C139.525 15.2206 139.749 15.9879 139.749 16.9591C139.749 18.0081 139.462 18.9065 138.889 19.6544C138.316 20.4022 137.548 20.9753 136.586 21.3735C135.624 21.7717 134.541 21.9708 133.337 21.9708C131.471 21.9708 129.936 21.5483 128.732 20.7033C127.527 19.8583 126.789 18.6491 126.517 17.0757H130.276C130.412 17.639 130.728 18.1004 131.224 18.4597C131.719 18.8191 132.433 18.9988 133.366 18.9988C134.104 18.9988 134.697 18.8677 135.144 18.6054C135.59 18.3432 135.814 17.979 135.814 17.5127C135.814 17.0465 135.595 16.7357 135.158 16.5221V16.5221Z"
        fill="currentColor"></path>
</svg>