<svg xmlns="http://www.w3.org/2000/svg" width="190" height="50" viewBox="0 0 212 59" fill="none">
    <path
        d="M8.22947 57.3177L1.0296 57.3606L0.69597 1.36157L19.5756 1.24909C29.5755 1.18952 41.6657 2.87752 41.7563 18.0772C41.844 32.797 29.7737 34.4689 19.6939 34.529L8.09411 34.5981L8.22947 57.3177ZM7.93302 7.55857L8.05741 28.4382L19.6572 28.3691C26.5371 28.3281 34.7741 27.799 34.7164 18.1192C34.6535 7.55938 26.4127 7.44847 19.6128 7.48898L7.93302 7.55857ZM84.7028 50.942L84.8981 56.8609C83.3796 57.11 82.0201 57.1981 80.4201 57.2076C76.0202 57.2338 73.6078 55.1681 73.183 51.0106C70.9703 55.5839 66.5842 57.93 59.7843 57.9706C53.0644 58.0106 46.3226 54.3707 46.2759 46.5308C46.2244 37.891 53.49 35.4477 59.8027 34.21L72.9872 31.5714C72.9658 27.9715 72.7939 25.9725 71.5839 24.2997C70.4544 22.7064 67.8082 21.6821 64.2883 21.7031C57.3284 21.7445 54.5437 24.3212 54.5799 30.4011L47.5343 29.483C47.6657 24.6822 49.3247 21.1522 52.4323 19.0537C55.3008 17.1165 59.5345 16.0513 64.6544 16.0208C74.7343 15.9607 79.8809 20.4102 79.9328 29.13L80.0467 48.2497C80.0591 50.3296 80.0648 51.2896 82.3848 51.2758C83.0248 51.272 83.6643 51.1882 84.7028 50.942ZM73.0482 41.8112L73.0192 36.9313L60.9551 39.6433C56.7209 40.6285 53.6081 41.8471 53.6353 46.407C53.6577 50.1669 56.95 52.2273 60.8699 52.204C69.5898 52.152 73.0826 47.5711 73.0482 41.8112ZM118.476 39.1405L118.342 16.6609L125.542 16.6181L125.781 56.6173L118.581 56.6602L118.545 50.6603C116.412 55.2331 111.946 57.6598 106.267 57.6936C101.067 57.7246 97.2982 56.307 94.4001 53.2842C91.2606 50.0229 91.1506 44.9835 91.1253 40.7435L90.9828 16.824L98.4227 16.7796L98.5628 40.2992C98.5847 43.9791 98.5233 47.0996 100.937 49.4052C103.27 51.6314 105.911 51.6956 108.231 51.6818C111.831 51.6604 118.545 50.7403 118.476 39.1405ZM150.713 57.4288C141.753 57.4822 133.649 53.3704 133.67 43.4501L140.226 42.771C140.179 48.3714 144.28 51.787 150.519 51.7499C157.079 51.7108 160.346 49.4513 160.321 45.2114C160.294 40.6514 152.93 40.1353 147.402 38.7282C140.912 37.0868 134.501 35.205 134.453 27.2852C134.404 18.9653 142.064 15.5596 149.184 15.5172C157.663 15.4667 165.043 18.7828 165.981 28.5373L159.268 29.6174C159.075 24.0984 155.457 21.1599 149.137 21.1976C145.217 21.2209 141.149 23.0852 141.17 26.7651C141.192 30.4451 145.998 31.4564 150.805 32.4678C158.814 34.1001 167.062 35.411 167.118 44.7709C167.176 54.5307 158.793 57.3807 150.713 57.4288ZM207.574 23.0894C209.997 26.9151 211.311 32.5874 211.025 38.2692L180.705 38.4498C180.918 47.2487 184.623 51.4667 192.143 51.4219C198.942 51.3814 202.605 48.4795 203.529 42.3939L210.492 42.9124C208.788 52.2827 202.417 57.1208 192.257 57.1813C186.097 57.218 181.286 55.4066 177.822 51.4272C174.44 47.6873 172.889 42.4964 172.852 36.2565C172.817 30.3366 174.466 25.1267 177.803 21.3468C181.299 17.3259 186.167 15.2968 191.927 15.2625C198.247 15.2249 204.263 17.9091 207.574 23.0894ZM192.042 21.1019C187.562 21.1286 184.212 22.8286 182.628 25.4781C181.202 27.8866 180.738 30.6095 180.75 32.6094L203.63 32.4731C203.537 30.3136 202.719 27.2784 201.428 25.3661C199.329 22.3386 196.362 21.0762 192.042 21.1019Z"
        fill="#FFF84B" />
</svg>