<svg width="120" height="65" viewBox="0 0 142 74" fill="none" xmlns="http://www.w3.org/2000/svg"
    class="opacity-0 md:opacity-100 hidden">
    <path
        d="M7.75376 57.158L0.553892 57.2009L0.220262 1.20191L19.0999 1.08942C29.0998 1.02985 41.19 2.71785 41.2806 17.9176C41.3683 32.6373 29.298 34.3093 19.2182 34.3693L7.61841 34.4384L7.75376 57.158ZM7.45731 7.3989L7.58171 28.2785L19.1815 28.2094C26.0614 28.1684 34.2984 27.6394 34.2407 17.9595C34.1778 7.39971 25.937 7.2888 19.1371 7.32931L7.45731 7.3989ZM56.0804 56.8701L48.8805 56.913L48.5469 0.913986L55.7468 0.87109L56.0804 56.8701ZM102.899 50.6711L103.094 56.59C101.575 56.8391 100.216 56.9272 98.6159 56.9367C94.216 56.9629 91.8037 54.8972 91.3789 50.7397C89.1661 55.313 84.78 57.6591 77.9801 57.6996C71.2602 57.7397 64.5184 54.0998 64.4717 46.2599C64.4202 37.6201 71.6858 35.1767 77.9986 33.9391L91.1831 31.3005C91.1616 27.7006 90.9897 25.7016 89.7797 24.0287C88.6502 22.4354 86.0041 21.4112 82.4841 21.4322C75.5242 21.4736 72.7395 24.0503 72.7758 30.1302L65.7302 29.2121C65.8616 24.4112 67.5206 20.8813 70.6281 18.7828C73.4966 16.8456 77.7304 15.7804 82.8503 15.7499C92.9301 15.6898 98.0767 20.1392 98.1286 28.8591L98.2426 47.9788C98.2549 50.0587 98.2607 51.0187 100.581 51.0049C101.221 51.0011 101.86 50.9173 102.899 50.6711ZM91.2441 41.5403L91.215 36.6604L79.1509 39.3723C74.9167 40.3576 71.8039 41.5762 71.8311 46.1361C71.8535 49.896 75.1458 51.9564 79.0658 51.9331C87.7856 51.8811 91.2784 47.3002 91.2441 41.5403ZM126.293 38.0515L133.844 16.4061L141.364 16.3613L125.305 60.1377C122.077 68.9571 119.221 72.8942 113.701 72.9271C111.781 72.9385 109.619 72.7114 107.616 72.1633L107.736 65.4425C109.179 65.9139 110.861 66.3039 112.701 66.2929C115.661 66.2753 117.002 62.9873 119.601 56.1717L103.765 16.5853L111.445 16.5395L119.173 38.0939C120.15 40.8081 121.453 44.7204 122.757 48.7127C124.328 43.8233 125.192 41.2581 126.293 38.0515Z"
        fill="#FFF84B"></path>
</svg>